<mxfile host="app.diagrams.net" agent="Mozilla/5.0 (Windows NT 10.0; Win64; x64) AppleWebKit/537.36 (KHTML, like Gecko) Chrome/134.0.0.0 Safari/537.36 OPR/119.0.0.0" version="27.1.1">
  <diagram name="Página-1" id="gGccwoIXbUSw_T_54MMe">
    <mxGraphModel dx="1280" dy="528" grid="1" gridSize="10" guides="1" tooltips="1" connect="1" arrows="1" fold="1" page="1" pageScale="1" pageWidth="827" pageHeight="1169" math="0" shadow="0">
      <root>
        <mxCell id="0" />
        <mxCell id="1" parent="0" />
        <mxCell id="0NnnYCNudTGSPzUyJeqR-1" value="20" style="ellipse;whiteSpace=wrap;html=1;aspect=fixed;" vertex="1" parent="1">
          <mxGeometry x="70" y="150" width="320" height="320" as="geometry" />
        </mxCell>
        <mxCell id="0NnnYCNudTGSPzUyJeqR-2" value="CPM Rincón de Romos" style="text;html=1;align=center;verticalAlign=middle;whiteSpace=wrap;rounded=0;" vertex="1" parent="1">
          <mxGeometry x="180" y="110" width="120" height="30" as="geometry" />
        </mxCell>
        <mxCell id="0NnnYCNudTGSPzUyJeqR-3" value="20" style="shape=cylinder3;whiteSpace=wrap;html=1;boundedLbl=1;backgroundOutline=1;size=15;" vertex="1" parent="1">
          <mxGeometry x="140" y="270" width="60" height="80" as="geometry" />
        </mxCell>
        <mxCell id="0NnnYCNudTGSPzUyJeqR-4" value="80" style="shape=cylinder3;whiteSpace=wrap;html=1;boundedLbl=1;backgroundOutline=1;size=15;" vertex="1" parent="1">
          <mxGeometry x="280" y="310" width="60" height="80" as="geometry" />
        </mxCell>
        <mxCell id="0NnnYCNudTGSPzUyJeqR-5" value="CPM Farmacia Externa" style="text;html=1;align=center;verticalAlign=middle;whiteSpace=wrap;rounded=0;" vertex="1" parent="1">
          <mxGeometry x="120" y="230" width="100" height="30" as="geometry" />
        </mxCell>
        <mxCell id="0NnnYCNudTGSPzUyJeqR-7" value="CPM Almacén de Consumo" style="text;html=1;align=center;verticalAlign=middle;whiteSpace=wrap;rounded=0;" vertex="1" parent="1">
          <mxGeometry x="260" y="270" width="100" height="30" as="geometry" />
        </mxCell>
        <mxCell id="0NnnYCNudTGSPzUyJeqR-8" value="" style="shape=cylinder3;whiteSpace=wrap;html=1;boundedLbl=1;backgroundOutline=1;size=15;" vertex="1" parent="1">
          <mxGeometry x="580" y="260" width="60" height="80" as="geometry" />
        </mxCell>
        <mxCell id="0NnnYCNudTGSPzUyJeqR-9" value="Santa FE" style="text;html=1;align=center;verticalAlign=middle;whiteSpace=wrap;rounded=0;" vertex="1" parent="1">
          <mxGeometry x="580" y="220" width="60" height="30" as="geometry" />
        </mxCell>
        <mxCell id="0NnnYCNudTGSPzUyJeqR-10" style="edgeStyle=orthogonalEdgeStyle;rounded=0;orthogonalLoop=1;jettySize=auto;html=1;exitX=1;exitY=0.5;exitDx=0;exitDy=0;entryX=0;entryY=0;entryDx=0;entryDy=52.5;entryPerimeter=0;" edge="1" parent="1" source="0NnnYCNudTGSPzUyJeqR-1" target="0NnnYCNudTGSPzUyJeqR-8">
          <mxGeometry relative="1" as="geometry" />
        </mxCell>
        <mxCell id="0NnnYCNudTGSPzUyJeqR-11" value="100&lt;div&gt;&lt;br&gt;&lt;/div&gt;" style="text;html=1;align=center;verticalAlign=middle;resizable=0;points=[];autosize=1;strokeColor=none;fillColor=none;" vertex="1" parent="1">
          <mxGeometry x="220" y="483" width="40" height="40" as="geometry" />
        </mxCell>
        <mxCell id="0NnnYCNudTGSPzUyJeqR-12" style="edgeStyle=orthogonalEdgeStyle;rounded=0;orthogonalLoop=1;jettySize=auto;html=1;exitX=0;exitY=0.5;exitDx=0;exitDy=0;exitPerimeter=0;entryX=1;entryY=0;entryDx=0;entryDy=52.5;entryPerimeter=0;" edge="1" parent="1" source="0NnnYCNudTGSPzUyJeqR-4" target="0NnnYCNudTGSPzUyJeqR-3">
          <mxGeometry relative="1" as="geometry" />
        </mxCell>
        <mxCell id="0NnnYCNudTGSPzUyJeqR-13" value="120&lt;div&gt;&lt;br&gt;&lt;/div&gt;" style="text;html=1;align=center;verticalAlign=middle;resizable=0;points=[];autosize=1;strokeColor=none;fillColor=none;" vertex="1" parent="1">
          <mxGeometry x="340" y="443" width="40" height="40" as="geometry" />
        </mxCell>
      </root>
    </mxGraphModel>
  </diagram>
</mxfile>
